<?xml version="1.0" encoding="UTF-8" standalone="no"?>
<!-- Created with Inkscape (http://www.inkscape.org/) -->

<svg
   width="297mm"
   height="210mm"
   viewBox="0 0 1122.5197 793.7008"
   version="1.1"
   id="svg5"
   inkscape:version="1.2-dev (a03ab6d6, 2021-10-01)"
   sodipodi:docname="drawing.svg"
   xmlns:inkscape="http://www.inkscape.org/namespaces/inkscape"
   xmlns:sodipodi="http://sodipodi.sourceforge.net/DTD/sodipodi-0.dtd"
   xmlns="http://www.w3.org/2000/svg"
   xmlns:svg="http://www.w3.org/2000/svg">
  <sodipodi:namedview
     id="namedview7"
     pagecolor="#ffffff"
     bordercolor="#000000"
     borderopacity="0.25"
     inkscape:pageshadow="2"
     inkscape:pageopacity="0.0"
     inkscape:pagecheckerboard="0"
     inkscape:blackoutopacity="0.0"
     inkscape:document-units="mm"
     showgrid="false"
     inkscape:zoom="3.9710672"
     inkscape:cx="165.57262"
     inkscape:cy="368.41481"
     inkscape:window-width="1920"
     inkscape:window-height="986"
     inkscape:window-x="-11"
     inkscape:window-y="-11"
     inkscape:window-maximized="1"
     inkscape:current-layer="layer1" />
  <defs
     id="defs2" />
  <g
     inkscape:label="Layer 1"
     inkscape:groupmode="layer"
     id="layer1">
    <text
       xml:space="preserve"
       style="font-style:normal;font-weight:normal;font-size:188.093px;line-height:1.25;font-family:sans-serif;fill:#000000;fill-opacity:1;stroke:none;stroke-width:4.70232"
       x="73.75499"
       y="388.45508"
       id="text167"
       transform="scale(0.87804431,1.1388947)"><tspan
         sodipodi:role="line"
         id="tspan165"
         x="73.75499"
         y="388.45508"
         style="font-style:normal;font-variant:normal;font-weight:normal;font-stretch:normal;font-family:'Freestyle Script';-inkscape-font-specification:'Freestyle Script';stroke-width:4.70232">Happy Anniversary Ivy</tspan></text>
    <path
       style="fill:none;stroke:#87f300;stroke-width:8.56063;stroke-linecap:butt;stroke-linejoin:miter;stroke-miterlimit:4;stroke-dasharray:none;stroke-opacity:1"
       d="m 130.34334,256.41313 -29.91487,85.47105 -22.792272,52.70714 -11.396139,47.72133 -0.165411,-56.39805 89.385392,-31.05177 -23.69218,-0.87025 28.49776,-59.34833 -60.434617,143.68988 42.620737,-35.1957 8.5471,-16.38195 12.1084,-14.24518 h 7.12259 c 0,0 4.09548,-1.06839 -4.09549,3.73936 l -8.19098,4.80775 -7.12258,8.72517 -7.30066,14.6013 c 0,0 -10.50581,27.06583 -1.60258,25.46325 8.90324,-1.60259 15.1355,-14.24518 15.1355,-14.24518 l 14.06711,-31.69551 0.89032,-10.68388 0.71226,16.38195 -6.94452,16.02582 -3.38323,17.6284 c 0,0 -0.35613,12.28647 4.80775,12.46453 5.16387,0.17806 7.65678,-1.95871 7.65678,-1.95871 l 29.2026,-71.0478 1.60259,0.89032 -6.5884,19.94324 -31.33938,71.76006 -11.93033,36.14713 1.42451,2.31484 41.8452,-112.71493 c 0,0 13.35485,-6.94453 14.24518,-3.0271 0.89032,3.91742 1.78064,16.56001 1.78064,16.56001 l -6.23226,15.31356 c 0,0 -17.6284,26.17551 -23.6826,20.6555 -6.0542,-5.52 61.61037,-66.24005 61.61037,-66.24005 l -47.89939,123.75494 0.89032,4.09549 42.02326,-110.4001 c 0,0 17.27228,-10.86194 17.27228,-4.45161 0,6.41033 -3.20517,21.90195 -3.20517,21.90195 0,0 -11.21807,29.02454 -19.23098,29.7368 -8.01291,0.71226 -10.68388,-0.35613 -10.68388,-0.35613 l 62.5007,-49.8581 -18.87486,31.51744 c 0,0 -8.19097,29.20261 5.16388,14.77937 13.35485,-14.42324 35.25681,-46.29681 35.25681,-46.29681 l -19.05292,48.43359 -9.97163,29.38067 c 0,0 -10.86194,36.85938 -19.94324,36.85938 -9.0813,0 -16.56002,-7.12258 -12.46453,-14.24517 4.09549,-7.12259 27.2439,-36.50326 27.2439,-36.50326 0,0 27.06584,-14.77937 33.65423,-26.53163 6.58839,-11.75227 7.83484,-16.56002 7.83484,-16.56002 L 440.17588,304.4906 c 0,0 -25.64132,29.55873 -33.83229,42.02326 -8.19098,12.46453 -46.4907,92.15916 -46.4907,92.15916 l 31.53879,-51.10928 21.84737,-48.61203 26.94489,-31.22586 -18.88661,91.15937 c 0,0 -6.54735,36.76594 -3.77732,40.54326 2.77004,3.77732 -52.67389,-47.04741 -52.67389,-47.04741 l 69.0497,-26.35485 20.89377,14.22421 -21.40483,50.3643 c 0,0 2.77004,2.77003 4.02915,1.25911 1.25911,-1.51093 8.31011,-24.93033 11.08014,-29.21129 2.77004,-4.28097 23.67122,-22.16029 23.67122,-22.16029 0,0 -13.59836,25.43396 -13.59836,30.21857 0,4.78461 -6.79918,23.92304 1.25911,29.21129 8.05829,5.28825 38.96381,-62.88685 38.96381,-62.88685 l -20.32902,57.86091 c 0,0 21.62393,-44.27303 36.22957,-55.605 14.60565,-11.33196 -10.08334,24.05573 -10.08334,24.05573 0,0 -10.97584,35.15069 -1.1548,38.17255 9.82104,3.02186 36.20119,-64.80453 36.20119,-64.80453 l -20.96229,61.33272 32.78,-92.61968 5.20184,-8.72735 3.88163,41.0216 -11.58379,31.47768 c 0,0 -5.79189,18.88661 -1.76275,20.14572 4.02914,1.25911 14.59175,0.0768 21.40483,-18.13114 6.24184,-16.68133 8.2669,-45.79138 8.2669,-45.79138 l 1.76275,38.40214 13.72056,-10.58698 1.68375,15.96164 c 0,0 17.1165,-1.59113 24.36558,-27.93428 6.61392,-24.035 -22.85465,14.0841 -22.85465,14.0841 l -7.21641,21.77886 14.26741,13.22433 c 0,0 15.61294,-9.82104 26.18944,-23.67122 10.5765,-13.85018 28.70023,-34.46682 28.70023,-34.46682 l -28.73602,66.44073 c 0,0 24.3831,-44.96223 45.61547,-61.68885 20.9876,-16.5338 -9.31739,14.10201 -9.31739,14.10201 l 4.29886,11.42886 15.09139,-13.68784 28.70765,3.26626 c 0,0 13.52546,-4.75487 15.36111,-12.08743 2.70893,-10.82091 -7.051,-11.83561 -7.051,-11.83561 0,0 -18.13115,3.02186 -19.39025,10.57651 -1.25911,7.55464 -3.02186,16.87203 -3.02186,16.87203 l 9.06557,27.44854 c 0,0 -5.77399,19.07733 -18.38297,9.06558 -12.13305,-9.63386 -2.01457,-25.68579 -2.01457,-25.68579 l 76.69383,-37.4961 -22.04857,13.06941 -14.102,33.49226 5.79189,16.87204 c 0,0 8.56193,-4.53279 14.10201,-16.11658 5.54007,-11.58378 14.102,-31.98132 14.102,-31.98132 0,0 7.04141,-26.54036 4.29145,-11.27086 l -2.5287,14.04089 -6.29554,17.37569 c 0,0 -8.05829,15.10928 -5.79189,21.153 2.26639,6.04371 5.54007,9.56922 5.54007,9.56922 l 36.17588,-64.35458 -25.09573,56.04447 -0.75547,12.47935 23.67122,-45.97161 c 0,0 34.24772,-34.75136 21.40482,-19.39025 l -12.84289,15.36111 0.75546,12.37504 c 0,0 9.82104,-2.05036 17.87933,-11.61958 8.05829,-9.56921 27.96267,-12.77437 27.96267,-12.77437 0,0 -18.70029,19.40103 -20.15621,24.60998 l -4.07234,14.56986 c 0,0 -8.62611,21.18137 14.64885,1.29489 15.24923,-13.02918 28.76875,-45.73768 28.76875,-45.73768 l -15.71724,39.98899 -18.84341,54.35024 c 0,0 2.12978,-0.379 -11.03694,21.69985 -11.87881,19.9192 -17.41888,-4.61921 -17.41888,-4.61921 0,0 -2.61304,-8.1417 5.79189,-18.84339 6.06902,-7.72747 21.90847,-19.64208 21.90847,-19.64208 l 12.84289,-11.33196 12.59108,-8.81376 c 0,0 15.61294,-20.64936 16.3684,-24.6785 0.75547,-4.02914 1.51093,-5.54007 1.51093,-5.54007"
       id="path2399"
       sodipodi:nodetypes="cccccccccccccscccsccccccsccccccccsccsccccscscccscccsscsccscccccsccccsscssccscsccccccssccccscccsccsccccscsccscccccscsccscccccsccscscscccscscccsc" />
    <circle
       id="path5640"
       style="fill:#000000;stroke:#87f300"
       cx="873.31689"
       cy="395.10788"
       r="0.12677434" />
    <circle
       id="path5642"
       style="fill:#000000;stroke:#87f300"
       cx="873.31689"
       cy="395.10788"
       r="0.12677434" />
    <circle
       id="path5644"
       style="fill:#000000;stroke:#87f300"
       cx="983.36285"
       cy="296.64569"
       r="0.12677434" />
    <path
       style="fill:none;stroke:#00ff00;stroke-width:12.3402;stroke-linecap:butt;stroke-linejoin:miter;stroke-miterlimit:4;stroke-dasharray:none;stroke-opacity:1"
       d="m 873.22917,397.08423 106.8388,-95.44266 -29.20261,55.55617 -12.46452,27.42196 -8.90324,28.84648 -8.5471,38.10584 52.35101,-80.48523 -6.0542,21.01163 c 0,0 -3.56129,1.42451 -5.69807,11.75226 l -2.13677,10.32775 -0.35613,13.17679 c 0,0 -0.71226,4.98581 1.78064,3.56129 l 2.49291,-1.42451 13.53292,-14.24518 4.98581,-12.46452 c 0,0 1.42451,-25.99745 4.62968,-26.7097 3.20516,-0.71226 0,11.75226 0,11.75226 l -1.78065,9.25937 v 3.56129 c 0,0 5.34194,5.34194 11.04001,0.35613 5.69804,-4.98581 30.27104,-25.64131 30.27104,-25.64131 l -17.8065,24.57292 -3.9175,14.6013 -2.4928,12.46453 c 0,0 4.9858,1.06839 11.0399,-6.0542 6.0542,-7.12258 35.2568,-48.43358 35.2568,-48.43358 l -15.6696,36.32518 -10.3278,24.2168 -7.1226,25.64131 c 0,0 -9.9716,22.79228 -11.3961,24.2168 -1.4245,1.42452 -8.5471,16.02582 -14.95743,12.1084 -6.41032,-3.91743 -5.69807,-17.45034 -5.69807,-17.45034 l 4.62969,-12.46453 c 0,0 1.78064,-7.12259 18.87481,-18.1626 17.0942,-11.04001 30.9833,-23.86066 30.9833,-23.86066 0,0 14.9574,-19.94324 15.6697,-23.14841 0.7122,-3.20516 3.9174,-17.80647 3.9174,-17.80647 v 0"
       id="path19267"
       sodipodi:nodetypes="ccccccccsccscccscccsccccsccccssccscscc" />
  </g>
</svg>
